<mxfile host="app.diagrams.net" modified="2021-11-12T08:21:51.493Z" agent="5.0 (Windows NT 10.0; Win64; x64) AppleWebKit/537.36 (KHTML, like Gecko) Chrome/95.0.4638.69 Safari/537.36 Edg/95.0.1020.44" etag="y8TxkkbEsiG34cyDezIX" version="15.7.2" type="github">
  <diagram id="kgpKYQtTHZ0yAKxKKP6v" name="Page-1">
    <mxGraphModel dx="865" dy="1556" grid="1" gridSize="10" guides="1" tooltips="1" connect="1" arrows="1" fold="1" page="1" pageScale="1" pageWidth="850" pageHeight="1100" math="0" shadow="0">
      <root>
        <mxCell id="0" />
        <mxCell id="1" parent="0" />
        <mxCell id="2CA6974sQvlHss55F8z--73" value="Loop" style="shape=umlFrame;whiteSpace=wrap;html=1;width=40;height=20;boundedLbl=1;verticalAlign=middle;align=left;spacingLeft=5;rounded=0;labelBackgroundColor=none;strokeColor=default;fillColor=none;gradientColor=none;" vertex="1" parent="1">
          <mxGeometry x="30" y="200" width="560" height="210" as="geometry" />
        </mxCell>
        <mxCell id="2CA6974sQvlHss55F8z--70" value="Spieler Zug" style="shape=umlFrame;whiteSpace=wrap;html=1;width=120;height=30;boundedLbl=1;verticalAlign=middle;align=left;spacingLeft=5;rounded=0;labelBackgroundColor=none;strokeColor=#B3B3B3;fillColor=none;gradientColor=none;" vertex="1" parent="1">
          <mxGeometry y="-20" width="850" height="830" as="geometry" />
        </mxCell>
        <mxCell id="2CA6974sQvlHss55F8z--72" value="Opt" style="shape=umlFrame;whiteSpace=wrap;html=1;width=120;height=30;boundedLbl=1;verticalAlign=middle;align=left;spacingLeft=5;rounded=0;labelBackgroundColor=none;strokeColor=default;fillColor=none;gradientColor=none;" vertex="1" parent="1">
          <mxGeometry x="10" y="160" width="620" height="260" as="geometry" />
        </mxCell>
        <mxCell id="2CA6974sQvlHss55F8z--12" value="" style="endArrow=open;startArrow=none;endFill=0;startFill=0;endSize=8;html=1;verticalAlign=bottom;labelBackgroundColor=none;strokeWidth=1;rounded=0;" edge="1" parent="1">
          <mxGeometry width="160" relative="1" as="geometry">
            <mxPoint x="69.32352941176464" y="215" as="sourcePoint" />
            <mxPoint x="260" y="215" as="targetPoint" />
            <Array as="points">
              <mxPoint x="160" y="215" />
            </Array>
          </mxGeometry>
        </mxCell>
        <mxCell id="2CA6974sQvlHss55F8z--13" value="1. Karte auswählen" style="edgeLabel;html=1;align=center;verticalAlign=middle;resizable=0;points=[];" vertex="1" connectable="0" parent="2CA6974sQvlHss55F8z--12">
          <mxGeometry x="0.1178" y="9" relative="1" as="geometry">
            <mxPoint x="1" as="offset" />
          </mxGeometry>
        </mxCell>
        <mxCell id="2CA6974sQvlHss55F8z--15" value="Hand" style="shape=umlLifeline;perimeter=lifelinePerimeter;whiteSpace=wrap;html=1;container=1;collapsible=0;recursiveResize=0;outlineConnect=0;rounded=0;labelBackgroundColor=none;fillColor=#dae8fc;strokeColor=#6c8ebf;" vertex="1" parent="1">
          <mxGeometry x="210" y="90" width="100" height="710" as="geometry" />
        </mxCell>
        <mxCell id="2CA6974sQvlHss55F8z--16" value="Ziehstapel" style="shape=umlLifeline;perimeter=lifelinePerimeter;whiteSpace=wrap;html=1;container=1;collapsible=0;recursiveResize=0;outlineConnect=0;rounded=0;labelBackgroundColor=none;fillColor=#dae8fc;strokeColor=#6c8ebf;" vertex="1" parent="1">
          <mxGeometry x="349" y="90" width="100" height="720" as="geometry" />
        </mxCell>
        <mxCell id="2CA6974sQvlHss55F8z--63" value="" style="endArrow=open;startArrow=none;endFill=0;startFill=0;endSize=8;html=1;verticalAlign=bottom;labelBackgroundColor=none;strokeWidth=1;rounded=0;" edge="1" parent="2CA6974sQvlHss55F8z--16">
          <mxGeometry width="160" relative="1" as="geometry">
            <mxPoint x="-90" y="369" as="sourcePoint" />
            <mxPoint x="51" y="369" as="targetPoint" />
            <Array as="points">
              <mxPoint x="-5.829999999999984" y="369.17" />
            </Array>
          </mxGeometry>
        </mxCell>
        <mxCell id="2CA6974sQvlHss55F8z--64" value="9. nehme Karte" style="edgeLabel;html=1;align=center;verticalAlign=middle;resizable=0;points=[];" vertex="1" connectable="0" parent="2CA6974sQvlHss55F8z--63">
          <mxGeometry x="0.1178" y="9" relative="1" as="geometry">
            <mxPoint x="1" as="offset" />
          </mxGeometry>
        </mxCell>
        <mxCell id="2CA6974sQvlHss55F8z--68" value="11. Bestätigung" style="edgeLabel;html=1;align=center;verticalAlign=middle;resizable=0;points=[];" vertex="1" connectable="0" parent="2CA6974sQvlHss55F8z--16">
          <mxGeometry x="162.9996551724139" y="440" as="geometry" />
        </mxCell>
        <mxCell id="2CA6974sQvlHss55F8z--35" value="" style="endArrow=classic;html=1;rounded=0;" edge="1" parent="1">
          <mxGeometry width="50" height="50" relative="1" as="geometry">
            <mxPoint x="259.32352941176464" y="221" as="sourcePoint" />
            <mxPoint x="398.5" y="221" as="targetPoint" />
            <Array as="points">
              <mxPoint x="320" y="221" />
            </Array>
          </mxGeometry>
        </mxCell>
        <mxCell id="2CA6974sQvlHss55F8z--37" value="2. Karte offen ablegen" style="edgeLabel;html=1;align=center;verticalAlign=middle;resizable=0;points=[];" vertex="1" connectable="0" parent="1">
          <mxGeometry x="332.99965517241384" y="210" as="geometry" />
        </mxCell>
        <mxCell id="2CA6974sQvlHss55F8z--38" value="Exploding Kittens" style="shape=umlLifeline;perimeter=lifelinePerimeter;whiteSpace=wrap;html=1;container=1;collapsible=0;recursiveResize=0;outlineConnect=0;rounded=0;labelBackgroundColor=none;fillColor=#dae8fc;strokeColor=#6c8ebf;" vertex="1" parent="1">
          <mxGeometry x="520" y="90" width="100" height="750" as="geometry" />
        </mxCell>
        <mxCell id="2CA6974sQvlHss55F8z--58" value="7. Bestätigung" style="edgeLabel;html=1;align=center;verticalAlign=middle;resizable=0;points=[];" vertex="1" connectable="0" parent="2CA6974sQvlHss55F8z--38">
          <mxGeometry x="6" y="299.9999999999999" as="geometry">
            <mxPoint x="6" as="offset" />
          </mxGeometry>
        </mxCell>
        <mxCell id="2CA6974sQvlHss55F8z--40" value="3. Bestätigen" style="edgeLabel;html=1;align=center;verticalAlign=middle;resizable=0;points=[];" vertex="1" connectable="0" parent="1">
          <mxGeometry x="348.9996551724139" y="232" as="geometry" />
        </mxCell>
        <mxCell id="2CA6974sQvlHss55F8z--42" value="" style="shape=umlLifeline;participant=umlActor;perimeter=lifelinePerimeter;whiteSpace=wrap;html=1;container=1;collapsible=0;recursiveResize=0;verticalAlign=top;spacingTop=36;outlineConnect=0;rounded=0;labelBackgroundColor=none;strokeColor=#6c8ebf;fillColor=#dae8fc;" vertex="1" parent="1">
          <mxGeometry x="60" y="90" width="20" height="740" as="geometry" />
        </mxCell>
        <mxCell id="2CA6974sQvlHss55F8z--69" value="" style="rounded=0;whiteSpace=wrap;html=1;labelBackgroundColor=none;strokeColor=#6c8ebf;fillColor=#dae8fc;" vertex="1" parent="2CA6974sQvlHss55F8z--42">
          <mxGeometry x="5" y="65" width="10" height="635" as="geometry" />
        </mxCell>
        <mxCell id="2CA6974sQvlHss55F8z--54" value="5. Bestätigen" style="edgeLabel;html=1;align=center;verticalAlign=middle;resizable=0;points=[];" vertex="1" connectable="0" parent="1">
          <mxGeometry x="519.9996551724139" y="300" as="geometry" />
        </mxCell>
        <mxCell id="2CA6974sQvlHss55F8z--55" value="" style="endArrow=classic;html=1;rounded=0;" edge="1" parent="1">
          <mxGeometry width="50" height="50" relative="1" as="geometry">
            <mxPoint x="71.66666666666663" y="352" as="sourcePoint" />
            <mxPoint x="570" y="352" as="targetPoint" />
          </mxGeometry>
        </mxCell>
        <mxCell id="2CA6974sQvlHss55F8z--56" value="6. Spieler passt" style="edgeLabel;html=1;align=center;verticalAlign=middle;resizable=0;points=[];" vertex="1" connectable="0" parent="2CA6974sQvlHss55F8z--55">
          <mxGeometry x="0.3923" y="-7" relative="1" as="geometry">
            <mxPoint x="-269" y="-18" as="offset" />
          </mxGeometry>
        </mxCell>
        <mxCell id="2CA6974sQvlHss55F8z--57" value="" style="endArrow=classic;html=1;rounded=0;" edge="1" parent="1">
          <mxGeometry width="50" height="50" relative="1" as="geometry">
            <mxPoint x="259.99666666666667" y="400" as="sourcePoint" />
            <mxPoint x="70" y="400" as="targetPoint" />
            <Array as="points">
              <mxPoint x="570" y="400" />
            </Array>
          </mxGeometry>
        </mxCell>
        <mxCell id="2CA6974sQvlHss55F8z--61" value="" style="endArrow=open;startArrow=none;endFill=0;startFill=0;endSize=8;html=1;verticalAlign=bottom;labelBackgroundColor=none;strokeWidth=1;rounded=0;" edge="1" parent="1">
          <mxGeometry width="160" relative="1" as="geometry">
            <mxPoint x="69.99666666666663" y="440" as="sourcePoint" />
            <mxPoint x="260.33" y="440" as="targetPoint" />
            <Array as="points">
              <mxPoint x="160.33" y="440" />
            </Array>
          </mxGeometry>
        </mxCell>
        <mxCell id="2CA6974sQvlHss55F8z--62" value="8.Beendet Spielzug" style="edgeLabel;html=1;align=center;verticalAlign=middle;resizable=0;points=[];" vertex="1" connectable="0" parent="2CA6974sQvlHss55F8z--61">
          <mxGeometry x="0.1178" y="9" relative="1" as="geometry">
            <mxPoint x="1" as="offset" />
          </mxGeometry>
        </mxCell>
        <mxCell id="2CA6974sQvlHss55F8z--65" value="" style="endArrow=open;startArrow=none;endFill=0;startFill=0;endSize=8;html=1;verticalAlign=bottom;labelBackgroundColor=none;strokeWidth=1;rounded=0;" edge="1" parent="1" source="2CA6974sQvlHss55F8z--16" target="2CA6974sQvlHss55F8z--38">
          <mxGeometry width="160" relative="1" as="geometry">
            <mxPoint x="460" y="490" as="sourcePoint" />
            <mxPoint x="600" y="490" as="targetPoint" />
            <Array as="points">
              <mxPoint x="514.1700000000001" y="490.17" />
            </Array>
          </mxGeometry>
        </mxCell>
        <mxCell id="2CA6974sQvlHss55F8z--66" value="10. Beendet Spielerzug" style="edgeLabel;html=1;align=center;verticalAlign=middle;resizable=0;points=[];" vertex="1" connectable="0" parent="2CA6974sQvlHss55F8z--65">
          <mxGeometry x="0.1178" y="9" relative="1" as="geometry">
            <mxPoint x="1" as="offset" />
          </mxGeometry>
        </mxCell>
        <mxCell id="2CA6974sQvlHss55F8z--67" value="" style="endArrow=classic;html=1;rounded=0;" edge="1" parent="1">
          <mxGeometry width="50" height="50" relative="1" as="geometry">
            <mxPoint x="259.99666666666667" y="540" as="sourcePoint" />
            <mxPoint x="70" y="540" as="targetPoint" />
            <Array as="points">
              <mxPoint x="570" y="540" />
            </Array>
          </mxGeometry>
        </mxCell>
        <mxCell id="2CA6974sQvlHss55F8z--53" value="" style="endArrow=classic;html=1;rounded=0;" edge="1" parent="1">
          <mxGeometry width="50" height="50" relative="1" as="geometry">
            <mxPoint x="259.9966666666667" y="310" as="sourcePoint" />
            <mxPoint x="70" y="310" as="targetPoint" />
            <Array as="points">
              <mxPoint x="570" y="310" />
            </Array>
          </mxGeometry>
        </mxCell>
        <mxCell id="2CA6974sQvlHss55F8z--43" value="" style="endArrow=classic;html=1;rounded=0;" edge="1" parent="1">
          <mxGeometry width="50" height="50" relative="1" as="geometry">
            <mxPoint x="69.5" y="282" as="sourcePoint" />
            <mxPoint x="570" y="282" as="targetPoint" />
          </mxGeometry>
        </mxCell>
        <mxCell id="2CA6974sQvlHss55F8z--45" value="4. Spieler für Aktion aus" style="edgeLabel;html=1;align=center;verticalAlign=middle;resizable=0;points=[];" vertex="1" connectable="0" parent="2CA6974sQvlHss55F8z--43">
          <mxGeometry x="0.3923" y="-7" relative="1" as="geometry">
            <mxPoint x="-255" y="-18" as="offset" />
          </mxGeometry>
        </mxCell>
        <mxCell id="2CA6974sQvlHss55F8z--74" value="" style="endArrow=none;rounded=0;" edge="1" parent="1" source="2CA6974sQvlHss55F8z--15" target="2CA6974sQvlHss55F8z--73">
          <mxGeometry width="50" height="50" relative="1" as="geometry">
            <mxPoint x="259.32352941176464" y="240" as="sourcePoint" />
            <mxPoint x="69.32352941176464" y="240" as="targetPoint" />
            <Array as="points">
              <mxPoint x="400" y="240" />
            </Array>
          </mxGeometry>
        </mxCell>
      </root>
    </mxGraphModel>
  </diagram>
</mxfile>
